<svg xmlns="http://www.w3.org/2000/svg" viewBox="0 0 300 52.32"><defs><style>.cls-1{fill:#dfc500;}.cls-2{fill:#7c828a;}</style></defs><title>Asset 2</title><g id="Layer_2" data-name="Layer 2"><g id="Foreground"><path class="cls-1" d="M7,15.21a1.75,1.75,0,0,0-.17.94c0,13.23,7.72,34.41,23.22,34.78L28.17,45c-8.53-.15-14.55-8.16-16.76-15.72a38.43,38.43,0,0,1-1.44-9Z"/><path class="cls-1" d="M30,50.9a.51.51,0,0,0,.37-.15C38,43.77,42.29,35.46,42.29,25A44.26,44.26,0,0,0,39.34,9.49l-1.61,3a30.13,30.13,0,0,1,1.45,9.26c0,9.35-4.27,17.14-11.06,23.32Z"/><path class="cls-1" d="M39.35,9.5a4.42,4.42,0,0,0-1.7-2.39,16.27,16.27,0,0,0-7-1.5c-8.48,0-16.87,4.53-23.54,9.4l0,0A1.22,1.22,0,0,0,7,15.2l3,5.16c6.29-4.53,14.38-8.84,22.29-8.84a14.68,14.68,0,0,1,5.49,1Z"/><path class="cls-1" d="M1,19.94a25.49,25.49,0,0,0,24.5,32.38,25,25,0,0,0,8.79-1.57c-.62.06-1.26,0-1.86,0C13.27,50.8,2.61,37.25,1,19.94Z"/><path class="cls-1" d="M42.41,8.43l1.06.45A25.46,25.46,0,0,0,3.37,14.2c7.35-5,15.7-8.55,24.76-8.55A37.37,37.37,0,0,1,42.41,8.43Z"/><path class="cls-1" d="M46.41,12.4a38,38,0,0,1,2.08,12.23,32.48,32.48,0,0,1-9.17,22.61c-.27.29-1.48,1.52-2.35,2.33A25.47,25.47,0,0,0,46.41,12.4Z"/><path class="cls-2" d="M77,13.88c-.23,3.88-1.75,7.45-6.23,7.45-5.84,0-6.62-5.49-6.62-10.67S65.13,0,70.8,0c4.19,0,6,2.36,6.06,6.38H74.22c-.06-2.33-.81-4.31-3.42-4.31-3.51,0-4,3.85-4,8.59s.46,8.6,4,8.6c3.07,0,3.5-2.88,3.59-5.38Z"/><path class="cls-2" d="M80.83,13.51c0,2.36,0,5.92,3,5.92,2.3,0,2.61-2.41,2.61-3.56h2.42c0,1.64-1,5.46-5.18,5.46-3.76,0-5.34-2.62-5.34-7.91,0-3.85.74-8.3,5.49-8.3s5.14,4.11,5.14,7.41v1Zm5.57-1.9v-.83C86.4,9.05,85.86,7,83.73,7c-2.53,0-2.82,3.11-2.82,4v.57Z"/><path class="cls-2" d="M90.84,5.52h2.3V7.33h.06a4.11,4.11,0,0,1,3.74-2.21c4,0,4,3.07,4,4.88V20.93H98.58V10.29c0-1.18-.09-3.1-2.28-3.1a3,3,0,0,0-3,3.1V20.93H90.84Z"/><path class="cls-2" d="M104.36,1h2.41V5.52h2.67v1.9h-2.67V17.3c0,1.24.32,1.73,1.58,1.73a6.91,6.91,0,0,0,1.06-.09v2a10.76,10.76,0,0,1-2,.17c-2.5,0-3.1-1-3.1-3.05V7.42h-2.25V5.52h2.25Z"/><path class="cls-2" d="M110.64,5.52h2.41v2.3h.06c.69-1.47,1.61-2.7,3.34-2.7a2.4,2.4,0,0,1,1.06.17V7.65a6.39,6.39,0,0,0-1.3-.12,3.42,3.42,0,0,0-3.16,3.65v9.75h-2.41Z"/><path class="cls-2" d="M118.34,10.18c0-3.51,1.5-5.06,5.18-5.06,4.68,0,4.68,2.81,4.68,4.42v8.6c0,.63,0,1.23.75,1.23a.84.84,0,0,0,.57-.14V21a8.33,8.33,0,0,1-1.41.15c-.92,0-2.07,0-2.18-2h-.06a4.36,4.36,0,0,1-3.71,2.22c-2.87,0-4.19-1.73-4.19-4.49,0-2.15.92-3.65,2.9-4.25l3.25-1c1.75-.54,1.75-1,1.75-2.33S125,7,123.4,7c-2.64,0-2.64,2.48-2.64,3v.15Zm7.45,2.35c-.9,1-3,1.15-4.11,1.81a2.47,2.47,0,0,0-1.18,2.45c0,1.55.54,2.64,2.18,2.64a3.14,3.14,0,0,0,3.11-2.93Z"/><path class="cls-2" d="M131,.4h2.41V20.93H131Z"/><path class="cls-2" d="M143.21.4h3.28l6.78,17.13h.06V.4h2.53V20.93h-3.48L145.8,4.31h-.06V20.93h-2.53Z"/><path class="cls-2" d="M160.46,13.51c0,2.36,0,5.92,3,5.92,2.3,0,2.62-2.41,2.62-3.56h2.41c0,1.64-1,5.46-5.17,5.46-3.77,0-5.35-2.62-5.35-7.91,0-3.85.75-8.3,5.49-8.3s5.14,4.11,5.14,7.41v1Zm5.58-1.9v-.83c0-1.73-.55-3.77-2.68-3.77-2.53,0-2.82,3.11-2.82,4v.57Z"/><path class="cls-2" d="M169.13,5.52h2.53l2.47,12.59h.06L176.8,5.52h2.85l2.56,12.59h0l2.39-12.59h2.53l-3.65,15.41h-2.65l-2.7-12.59h-.06l-2.58,12.59h-2.82Z"/><path class="cls-2" d="M193.85.4h2.78l3.91,9.6L204.6.4h2.64l-5.43,12.48v8h-2.53v-8Z"/><path class="cls-2" d="M211.55,5.12c4.46,0,5.55,3.76,5.55,8.1s-1.12,8.11-5.55,8.11S206,17.56,206,13.22,207.12,5.12,211.55,5.12Zm3,8.1c0-3.33-.49-6.21-3.08-6.21-2.44,0-3,2.88-3,6.21s.49,6.21,3,6.21S214.57,16.56,214.57,13.22Z"/><path class="cls-2" d="M218.9,5.52h2.42v2.3h.05c.69-1.47,1.61-2.7,3.34-2.7a2.37,2.37,0,0,1,1.06.17V7.65a6.35,6.35,0,0,0-1.29-.12,3.42,3.42,0,0,0-3.16,3.65v9.75H218.9Z"/><path class="cls-2" d="M238.48,20.93h-2.82l-4.28-7.62-2,2.41v5.21H227V.4h2.42V12.62h0l5.41-7.1h2.82L233,11.33Z"/><path class="cls-2" d="M64.72,27.25h3.7v9.27h6.81V27.25h3.69V50.41H75.23V39.64H68.42V50.41h-3.7Z"/><path class="cls-2" d="M90.66,48.36h-.1a5,5,0,0,1-4.47,2.5c-2.6,0-4.35-1.2-4.35-5.71V33h3.51V45.48c0,1.94.87,2.59,2.36,2.59a2.74,2.74,0,0,0,2.86-2.92V33H94V50.41H90.66Z"/><path class="cls-2" d="M96.71,33H100v2h.1a4.87,4.87,0,0,1,4.18-2.5c2.5,0,3.54,1.2,4.06,2.66a4.77,4.77,0,0,1,4.41-2.66c2.46,0,4.25,1.27,4.25,4.64V50.41h-3.51v-12c0-2.27-.68-3.15-2.11-3.15s-2.79,1.14-2.79,3.41V50.41h-3.5v-12c0-2.27-.68-3.15-2.14-3.15s-2.76,1.14-2.76,3.41V50.41h-3.5Z"/><path class="cls-2" d="M131.24,46.77c0,.65.39,1.24.91,1.24a1.51,1.51,0,0,0,.58-.1v2.27a4.21,4.21,0,0,1-1.71.42c-1.56,0-2.86-.62-3-2.3H128a4.53,4.53,0,0,1-4.35,2.56c-2.79,0-4.54-1.56-4.54-4.9,0-3.89,1.69-4.7,4.06-5.48l2.72-.74c1.27-.36,2-.72,2-2.24s-.55-2.6-2.4-2.6c-2.33,0-2.66,1.66-2.66,3.34h-3.3c0-3.69,1.52-5.74,6.13-5.74,3.08,0,5.54,1.2,5.54,4.28Zm-3.31-5.58c-.9.72-2.85,1.14-3.89,1.63a2.86,2.86,0,0,0-1.42,2.82c0,1.46.71,2.63,2.17,2.63,2.11,0,3.14-1.59,3.14-4.16Z"/><path class="cls-2" d="M134.23,33h3.31v2h.1a5,5,0,0,1,4.47-2.5c2.66,0,4.35,1.2,4.35,4.74V50.41H143v-12c0-2.27-.69-3.15-2.44-3.15-1.42,0-2.79,1.14-2.79,3.41V50.41h-3.5Z"/><path class="cls-2" d="M149.18,27h3.51v3.5h-3.51Zm0,6h3.51V50.41h-3.51Z"/><path class="cls-2" d="M154.1,33h2.4V28H160v5h2.85v2.59H160V46c0,1.36.38,1.85,1.58,1.85a6.33,6.33,0,0,0,1.27-.1v2.6a11.87,11.87,0,0,1-2.82.29c-2.37,0-3.54-.65-3.54-4.22V35.55h-2.4Z"/><path class="cls-2" d="M164.28,27h3.5v3.5h-3.5Zm0,6h3.5V50.41h-3.5Z"/><path class="cls-2" d="M173.53,42.14v1c0,2.34.3,5.32,2.92,5.32s2.79-2.85,2.79-3.89h3.31c0,3.86-2.34,6.29-6.13,6.29-2.85,0-6.39-.84-6.39-8.92,0-4.57,1-9.44,6.45-9.44,4.87,0,6.17,2.92,6.17,7.79v1.85Zm5.61-2.4V38.8c0-2.21-.71-3.9-2.69-3.9-2.24,0-2.92,2.21-2.92,4.48v.36Z"/><path class="cls-2" d="M192.4,38.05V37.6c0-1.4-.49-2.7-2.31-2.7-1.39,0-2.49.65-2.49,2.27,0,1.37.61,1.92,2.46,2.57l2.24.77c2.6.88,3.79,2.27,3.79,5,0,3.73-2.72,5.32-6.25,5.32-4.42,0-5.75-2-5.75-5.42V44.8h3.12v.55c0,2,.71,3.11,2.72,3.11s2.86-1,2.86-2.56a2.53,2.53,0,0,0-1.92-2.56l-2.85-1c-2.63-.91-3.73-2.24-3.73-5,0-3.27,2.37-4.8,6-4.8,4.44,0,5.45,2.6,5.45,4.77v.78Z"/><path class="cls-2" d="M220.42,42.1v.49c0,4.18-1.69,8.27-7.14,8.27-5.84,0-7.65-3.76-7.65-12s1.81-12,7.68-12c6.59,0,7,4.86,7,7.26v.42h-3.7v-.39c0-2.14-.65-4.6-3.31-4.51s-4,1.69-4,9.15,1.24,9.34,4,9.34c3.08,0,3.44-3.44,3.44-5.58V42.1Z"/><path class="cls-2" d="M228,32.5c5.09,0,6.51,3.77,6.51,9.18s-1.65,9.18-6.51,9.18-6.49-3.76-6.49-9.18S223,32.5,228,32.5Zm0,15.77c2.56,0,3-2.14,3-6.59,0-3.86-.45-6.58-3-6.58s-3,2.72-3,6.58C225.05,46.13,225.51,48.27,228,48.27Z"/><path class="cls-2" d="M236.3,33h3.51v2.72h.06c.78-1.94,2.08-3.18,4.06-3.18a2.84,2.84,0,0,1,.84.13V36.2a7,7,0,0,0-1.46-.19c-1.59,0-3.5.71-3.5,4V50.41H236.3Z"/><path class="cls-2" d="M246.09,33h3.51v2.72h.06c.78-1.94,2.08-3.18,4.06-3.18a2.84,2.84,0,0,1,.84.13V36.2A7,7,0,0,0,253.1,36c-1.59,0-3.5.71-3.5,4V50.41h-3.51Z"/><path class="cls-2" d="M256,27h3.5v3.5H256Zm0,6h3.5V50.41H256Z"/><path class="cls-2" d="M271.2,48.27h-.06a3.74,3.74,0,0,1-3.83,2.59c-4.09,0-5.71-3.4-5.71-9.41,0-7.75,2.73-9,5.39-9a4,4,0,0,1,3.95,2.5H271V27.25h3.5V50.41H271.2Zm-3.18-13c-2,0-2.72,1.62-2.72,6.33,0,4,.52,6.45,2.95,6.45s2.95-2.46,2.95-6.19C271.2,37.69,270.72,35.29,268,35.29Z"/><path class="cls-2" d="M283,32.5c5.1,0,6.52,3.77,6.52,9.18s-1.65,9.18-6.52,9.18-6.48-3.76-6.48-9.18S277.91,32.5,283,32.5Zm0,15.77c2.57,0,3-2.14,3-6.59,0-3.86-.45-6.58-3-6.58s-3,2.72-3,6.58C280,46.13,280.44,48.27,283,48.27Z"/><path class="cls-2" d="M291.53,33H295v2.72h.06c.78-1.94,2.08-3.18,4.06-3.18a2.84,2.84,0,0,1,.84.13V36.2a7,7,0,0,0-1.46-.19c-1.59,0-3.5.71-3.5,4V50.41h-3.51Z"/></g></g></svg>