<?xml version="1.0" encoding="UTF-8" standalone="no"?>
<!-- Created with Inkscape (http://www.inkscape.org/) -->
<svg id="svg2" xmlns:rdf="http://www.w3.org/1999/02/22-rdf-syntax-ns#" xmlns="http://www.w3.org/2000/svg" xml:space="preserve" height="72" width="72" version="1.1" xmlns:cc="http://creativecommons.org/ns#" xmlns:dc="http://purl.org/dc/elements/1.1/"><metadata id="metadata8"><rdf:RDF><cc:Work rdf:about=""><dc:format>image/svg+xml</dc:format><dc:type rdf:resource="http://purl.org/dc/dcmitype/StillImage"/><dc:title/></cc:Work></rdf:RDF></metadata><defs id="defs6"><clipPath id="clipPath18" clipPathUnits="userSpaceOnUse"><path id="path20" d="M0,0,595,0,595,842,0,842,0,0z"/></clipPath></defs><g id="g10" transform="matrix(1.25,0,0,-1.25,-430.46713,884.33483)"><g id="g14"><g id="g16" clip-path="url(#clipPath18)"><g id="g4744" transform="translate(-1.1e-5,0.31673556)"><path id="path74" stroke-linejoin="miter" d="m344.93,654.96,56.496,0" stroke="#000" stroke-linecap="butt" stroke-miterlimit="10" stroke-dasharray="none" stroke-width="1.20000005" fill="none"/><path id="path78" stroke-linejoin="miter" d="m344.93,666.81,56.496,0" stroke="#000" stroke-linecap="butt" stroke-miterlimit="10" stroke-dasharray="none" stroke-width="1.20000005" fill="none"/><path id="path82" stroke-linejoin="miter" d="m344.93,678.67,56.493,0" stroke="#000" stroke-linecap="butt" stroke-miterlimit="10" stroke-dasharray="none" stroke-width="1.20000005" fill="none"/><path id="path86" stroke-linejoin="miter" d="m344.93,690.52,56.497,0" stroke="#000" stroke-linecap="butt" stroke-miterlimit="10" stroke-dasharray="none" stroke-width="1.20000005" fill="none"/><g id="g88" transform="matrix(0.14652456,0,0,1.6148833,226.60594,-2288.6927)"><path id="path90" stroke-linejoin="miter" d="m807.51,1852.2,385.58,0" stroke="#000" stroke-linecap="butt" stroke-miterlimit="10" stroke-dasharray="none" stroke-width="2.46692228" fill="none"/></g></g><g id="g98" transform="matrix(0.3645833,0,0,0.36466,348.03823,654.04019)"><g id="text100" transform="scale(1,-1)"><path id="path3894" fill-rule="nonzero" fill="#000" d="m106.73-46.833,0-25.929-9.447,0,0,25.929-23.718,0,0-88.239-8.844,0-63.315,89.646,0,12.462,58.089,0,0,32.964,14.07,0,0-32.964,23.718,0,0,26.331,9.447,0,0-26.331,20.301,0,9.447-19.497-1.809-2.412c-2.814,5.427-6.633,8.04-11.658,8.04h-16.281m-96.279,0,48.843-67.737,0,67.737-48.843,0"/></g></g></g></g></g></svg>
