<?xml version="1.0" encoding="UTF-8" standalone="no"?>
<!-- Created with Inkscape (http://www.inkscape.org/) -->
<svg id="svg2" xmlns:rdf="http://www.w3.org/1999/02/22-rdf-syntax-ns#" xmlns="http://www.w3.org/2000/svg" xml:space="preserve" height="72" width="180" version="1.1" xmlns:cc="http://creativecommons.org/ns#" xmlns:dc="http://purl.org/dc/elements/1.1/"><metadata id="metadata8"><rdf:RDF><cc:Work rdf:about=""><dc:format>image/svg+xml</dc:format><dc:type rdf:resource="http://purl.org/dc/dcmitype/StillImage"/><dc:title/></cc:Work></rdf:RDF></metadata><defs id="defs6"><clipPath id="clipPath18" clipPathUnits="userSpaceOnUse"><path id="path20" d="M0,0,595,0,595,842,0,842,0,0z"/></clipPath></defs><g id="g10" transform="matrix(1.25,0,0,-1.25,-379.96662,879.90065)"><g id="g14"><g id="g16" clip-path="url(#clipPath18)"><g id="g22" transform="matrix(0.3645833,0,0,0.36466,11.572293,23.746634)"><path id="path24" stroke-linejoin="miter" d="m838,1853,0-128" stroke="#000" stroke-linecap="butt" stroke-miterlimit="10" stroke-dasharray="none" stroke-width="5" fill="none"/></g><g id="g26" transform="matrix(0.3645833,0,0,0.36466,10.779943,23.746634)"><path id="path28" stroke-linejoin="miter" d="m1163.2,1853,0-128" stroke="#000" stroke-linecap="butt" stroke-miterlimit="10" stroke-dasharray="none" stroke-width="5" fill="none"/></g><path id="path74" stroke-linejoin="miter" d="m304.53,652.79,142.89,0" stroke="#000" stroke-linecap="butt" stroke-miterlimit="10" stroke-dasharray="none" stroke-width="1.10391247" fill="none"/><path id="path78" stroke-linejoin="miter" d="m304.53,664.45,142.89,0" stroke="#000" stroke-linecap="butt" stroke-miterlimit="10" stroke-dasharray="none" stroke-width="1.10391247" fill="none"/><path id="path82" stroke-linejoin="miter" d="m304.53,676.12,142.88,0" stroke="#000" stroke-linecap="butt" stroke-miterlimit="10" stroke-dasharray="none" stroke-width="1.10719895" fill="none"/><path id="path86" stroke-linejoin="miter" d="m304.53,687.79,142.89,0" stroke="#000" stroke-linecap="butt" stroke-miterlimit="10" stroke-dasharray="none" stroke-width="1.10282362" fill="none"/><g id="g88" transform="matrix(0.37060338,0,0,0.36478333,5.2606302,23.518298)"><path id="path90" stroke-linejoin="miter" d="m807.51,1853,385.58,0" stroke="#000" stroke-linecap="butt" stroke-miterlimit="10" stroke-dasharray="none" stroke-width="3" fill="none"/></g><g id="g98" transform="matrix(0.3645833,0,0,0.36466,329.79036,649.86787)"><g id="text100" style="" transform="scale(1,-1)"><path id="path3894" fill-rule="nonzero" fill="#000" d="m106.73-46.833,0-25.929-9.447,0,0,25.929-23.718,0,0-88.239-8.844,0-63.315,89.646,0,12.462,58.089,0,0,32.964,14.07,0,0-32.964,23.718,0,0,26.331,9.447,0,0-26.331,20.301,0,9.447-19.497-1.809-2.412c-2.814,5.427-6.633,8.04-11.658,8.04h-16.281m-96.279,0,48.843-67.737,0,67.737-48.843,0"/></g></g></g></g></g></svg>
