<?xml version="1.0" encoding="UTF-8" standalone="no"?>
<!-- Created with Inkscape (http://www.inkscape.org/) -->
<svg id="svg2" xmlns:rdf="http://www.w3.org/1999/02/22-rdf-syntax-ns#" xmlns="http://www.w3.org/2000/svg" xml:space="preserve" height="79.203" width="175.83" version="1.1" xmlns:cc="http://creativecommons.org/ns#" xmlns:dc="http://purl.org/dc/elements/1.1/"><metadata id="metadata8"><rdf:RDF><cc:Work rdf:about=""><dc:format>image/svg+xml</dc:format><dc:type rdf:resource="http://purl.org/dc/dcmitype/StillImage"/><dc:title/></cc:Work></rdf:RDF></metadata><defs id="defs6"><clipPath id="clipPath18" clipPathUnits="userSpaceOnUse"><path id="path20" d="M0,0,595,0,595,842,0,842,0,0z"/></clipPath></defs><g id="g10" transform="matrix(1.25,0,0,-1.25,-379.96662,870.23513)"><g id="g14"><g id="g16" clip-path="url(#clipPath18)"><g id="g22" transform="matrix(0.3645833,0,0,0.36466,9.114583,13.12776)"><path id="path24" stroke-linejoin="miter" d="m838,1853,0-128" stroke="#000" stroke-linecap="butt" stroke-miterlimit="10" stroke-dasharray="none" stroke-width="5" fill="none"/></g><g id="g26" transform="matrix(0.3645833,0,0,0.36466,9.114583,13.12776)"><path id="path28" stroke-linejoin="miter" d="m1161,1853,0-128" stroke="#000" stroke-linecap="butt" stroke-miterlimit="10" stroke-dasharray="none" stroke-width="5" fill="none"/></g><g id="g30" transform="matrix(0.3645833,0,0,0.36466,9.114583,13.12776)"><path id="path32" stroke-linejoin="miter" d="m1483,1853,0-128" stroke="#000" stroke-linecap="butt" stroke-miterlimit="10" stroke-dasharray="none" stroke-width="5" fill="none"/></g><g id="g36" transform="matrix(0.3645833,0,0,0.36466,107.5521,595.4898)"><text id="text38" transform="scale(1,-1)"><tspan id="tspan40" style="writing-mode:lr;" font-family="Opus Figured Bass Std" fill-rule="nonzero" font-size="65" font-variant="normal" y="0" x="0 40.69 138.19" font-weight="normal" fill="#000000">K Ä</tspan></text>
</g><g id="g42" transform="matrix(0.3645833,0,0,0.36466,9.114583,13.12776)"><path id="path44" stroke-linejoin="miter" d="m694,1429,0-128" stroke="#000" stroke-linecap="butt" stroke-miterlimit="10" stroke-dasharray="none" stroke-width="5" fill="none"/></g><g id="g46" transform="matrix(0.3645833,0,0,0.36466,9.114583,13.12776)"><path id="path48" stroke-linejoin="miter" d="m1089,1429,0-128" stroke="#000" stroke-linecap="butt" stroke-miterlimit="10" stroke-dasharray="none" stroke-width="5" fill="none"/></g><g id="g50" transform="matrix(0.3645833,0,0,0.36466,9.114583,13.12776)"><path id="path52" stroke-linejoin="miter" d="m1455,1429,0-128" stroke="#000" stroke-linecap="butt" stroke-miterlimit="10" stroke-dasharray="none" stroke-width="5" fill="none"/></g><g id="g54" transform="matrix(0.3645833,0,0,0.36466,9.114583,13.12776)"><path id="path56" stroke-linejoin="miter" d="m1477,1429,0-128" stroke="#000" stroke-linecap="butt" stroke-miterlimit="10" stroke-dasharray="none" stroke-width="16" fill="none"/></g><g id="g60" transform="matrix(0.3645833,0,0,0.36466,121.7708,677.1736)"><text id="text62" transform="scale(1,-1)"><tspan id="tspan64" style="writing-mode:lr;" font-family="Opus Std" fill-rule="nonzero" font-size="129" font-variant="normal" y="0" x="0" font-weight="normal" fill="#000000">4</tspan></text>
</g><g id="g66" transform="matrix(0.3645833,0,0,0.36466,121.7708,653.8354)"><text id="text68" transform="scale(1,-1)"><tspan id="tspan70" style="writing-mode:lr;" font-family="Opus Std" fill-rule="nonzero" font-size="129" font-variant="normal" y="0" x="0" font-weight="normal" fill="#000000">4</tspan></text>
</g><g id="g72" transform="matrix(0.3645833,0,0,0.36466,9.114583,13.12776)"><path id="path74" stroke-linejoin="miter" d="m166,1725,1319,0" stroke="#000" stroke-linecap="butt" stroke-miterlimit="10" stroke-dasharray="none" stroke-width="3" fill="none"/></g><g id="g76" transform="matrix(0.3645833,0,0,0.36466,9.114583,13.12776)"><path id="path78" stroke-linejoin="miter" d="m166,1757,1319,0" stroke="#000" stroke-linecap="butt" stroke-miterlimit="10" stroke-dasharray="none" stroke-width="3" fill="none"/></g><g id="g80" transform="matrix(0.3645833,0,0,0.36466,9.114583,13.12776)"><path id="path82" stroke-linejoin="miter" d="m166,1789,1319,0" stroke="#000" stroke-linecap="butt" stroke-miterlimit="10" stroke-dasharray="none" stroke-width="3" fill="none"/></g><g id="g84" transform="matrix(0.3645833,0,0,0.36466,9.114583,13.12776)"><path id="path86" stroke-linejoin="miter" d="m166,1821,1319,0" stroke="#000" stroke-linecap="butt" stroke-miterlimit="10" stroke-dasharray="none" stroke-width="3" fill="none"/></g><g id="g88" transform="matrix(0.3645833,0,0,0.36466,9.114583,13.12776)"><path id="path90" stroke-linejoin="miter" d="m166,1853,1319,0" stroke="#000" stroke-linecap="butt" stroke-miterlimit="10" stroke-dasharray="none" stroke-width="3" fill="none"/></g><g id="g92" transform="matrix(0.3645833,0,0,0.36466,78.38541,653.8354)"><text id="text94" transform="scale(1,-1)"><tspan id="tspan96" style="writing-mode:lr;" font-family="Opus Std" fill-rule="nonzero" font-size="128" font-variant="normal" y="0" x="0" font-weight="normal" fill="#000000">&amp;</tspan></text>
</g><g id="g98" transform="matrix(0.3645833,0,0,0.36466,328.125,639.249)"><text id="text100" transform="scale(1,-1)"><tspan id="tspan102" style="writing-mode:lr;" font-family="Opus Figured Bass Std" fill-rule="nonzero" font-size="201" font-variant="normal" y="0" x="0" font-weight="normal" fill="#000000">Ä</tspan></text>
</g><g id="g104" transform="matrix(0.3645833,0,0,0.36466,485.2604,665.5045)"><text id="text106" transform="scale(1,-1)"><tspan id="tspan108" style="writing-mode:lr;" font-family="Opus Std" fill-rule="nonzero" font-size="128" font-variant="normal" y="0" x="0" font-weight="normal" fill="#000000">∑</tspan></text>
</g><g id="g110" transform="matrix(0.3645833,0,0,0.36466,9.114583,13.12776)"><path id="path112" stroke-linejoin="miter" d="m166,1301,1319,0" stroke="#000" stroke-linecap="butt" stroke-miterlimit="10" stroke-dasharray="none" stroke-width="3" fill="none"/></g><g id="g114" transform="matrix(0.3645833,0,0,0.36466,9.114583,13.12776)"><path id="path116" stroke-linejoin="miter" d="m166,1333,1319,0" stroke="#000" stroke-linecap="butt" stroke-miterlimit="10" stroke-dasharray="none" stroke-width="3" fill="none"/></g><g id="g118" transform="matrix(0.3645833,0,0,0.36466,9.114583,13.12776)"><path id="path120" stroke-linejoin="miter" d="m166,1365,1319,0" stroke="#000" stroke-linecap="butt" stroke-miterlimit="10" stroke-dasharray="none" stroke-width="3" fill="none"/></g><g id="g122" transform="matrix(0.3645833,0,0,0.36466,9.114583,13.12776)"><path id="path124" stroke-linejoin="miter" d="m166,1397,1319,0" stroke="#000" stroke-linecap="butt" stroke-miterlimit="10" stroke-dasharray="none" stroke-width="3" fill="none"/></g><g id="g126" transform="matrix(0.3645833,0,0,0.36466,9.114583,13.12776)"><path id="path128" stroke-linejoin="miter" d="m166,1429,1319,0" stroke="#000" stroke-linecap="butt" stroke-miterlimit="10" stroke-dasharray="none" stroke-width="3" fill="none"/></g><g id="g130" transform="matrix(0.3645833,0,0,0.36466,78.38541,499.2196)"><text id="text132" transform="scale(1,-1)"><tspan id="tspan134" style="writing-mode:lr;" font-family="Opus Std" fill-rule="nonzero" font-size="128" font-variant="normal" y="0" x="0" font-weight="normal" fill="#000000">&amp;</tspan></text>
</g><g id="g136" transform="matrix(0.3645833,0,0,0.36466,184.4792,510.8887)"><text id="text138" transform="scale(1,-1)"><tspan id="tspan140" style="writing-mode:lr;" font-family="Opus Std" fill-rule="nonzero" font-size="128" font-variant="normal" y="0" x="0" font-weight="normal" fill="#000000">∑</tspan></text>
</g><g id="g142" transform="matrix(0.3645833,0,0,0.36466,328.125,510.8887)"><text id="text144" transform="scale(1,-1)"><tspan id="tspan146" style="writing-mode:lr;" font-family="Opus Std" fill-rule="nonzero" font-size="128" font-variant="normal" y="0" x="0" font-weight="normal" fill="#000000">∑</tspan></text>
</g><g id="g148" transform="matrix(0.3645833,0,0,0.36466,472.1354,510.8887)"><text id="text150" transform="scale(1,-1)"><tspan id="tspan152" style="writing-mode:lr;" font-family="Opus Std" fill-rule="nonzero" font-size="128" font-variant="normal" y="0" x="0" font-weight="normal" fill="#000000">∑</tspan></text>
</g><g id="g154" transform="matrix(0.3645833,0,0,0.36466,9.114583,13.12776)"><path id="path156" stroke-linejoin="miter" d="m411,1784,0-107" stroke="#000" stroke-linecap="butt" stroke-miterlimit="10" stroke-dasharray="none" stroke-width="3" fill="none"/></g><g id="g158" transform="matrix(0.3645833,0,0,0.36466,158.5937,665.5045)"><text id="text160" transform="scale(1,-1)"><tspan id="tspan162" style="writing-mode:lr;" font-family="Opus Std" fill-rule="nonzero" font-size="128" font-variant="normal" y="0" x="0" font-weight="normal" fill="#000000">œ</tspan></text>
</g><g id="g164" transform="matrix(0.3645833,0,0,0.36466,200.8854,665.5045)"><text id="text166" transform="scale(1,-1)"><tspan id="tspan168" style="writing-mode:lr;" font-family="Opus Std" fill-rule="nonzero" font-size="128" font-variant="normal" y="0" x="0" font-weight="normal" fill="#000000">Œ</tspan></text>
</g><g id="g170" transform="matrix(0.3645833,0,0,0.36466,243.5417,665.5045)"><text id="text172" transform="scale(1,-1)"><tspan id="tspan174" style="writing-mode:lr;" font-family="Opus Std" fill-rule="nonzero" font-size="128" font-variant="normal" y="0" x="0" font-weight="normal" fill="#000000">Ó</tspan></text>
</g></g></g></g></svg>
